<svg width="1400" height="587" viewBox="0 0 1400 587" fill="none" xmlns="http://www.w3.org/2000/svg">
<rect x="50" y="100" width="1300" height="387" rx="32" fill="black"/>
<path d="M774 160.5H1284C1287.04 160.5 1289.5 162.962 1289.5 166V236C1289.5 239.038 1287.04 241.5 1284 241.5H774C770.962 241.5 768.5 239.038 768.5 236V166C768.5 162.962 770.962 160.5 774 160.5Z" fill="#191919" stroke="#191919"/>
<path d="M768 370C768 366.686 770.686 364 774 364H849C852.314 364 855 366.686 855 370V406C855 409.314 852.314 412 849 412H774C770.686 412 768 409.314 768 406V370Z" fill="#118DA8"/>
<path d="M774 262.5H1284C1287.04 262.5 1289.5 264.962 1289.5 268V338C1289.5 341.038 1287.04 343.5 1284 343.5H774C770.962 343.5 768.5 341.038 768.5 338V268C768.5 264.962 770.962 262.5 774 262.5Z" fill="#191919" stroke="#191919"/>
<path d="M788.776 209V192.2H790.792L799.744 205.664V192.2H801.76V209H799.744L790.792 195.536V209H788.776ZM809.163 209.288C808.171 209.288 807.347 209.12 806.691 208.784C806.035 208.448 805.547 208 805.227 207.44C804.907 206.88 804.747 206.272 804.747 205.616C804.747 204.4 805.211 203.464 806.139 202.808C807.067 202.152 808.331 201.824 809.931 201.824H813.147V201.68C813.147 200.64 812.875 199.856 812.331 199.328C811.787 198.784 811.059 198.512 810.147 198.512C809.363 198.512 808.683 198.712 808.107 199.112C807.547 199.496 807.195 200.064 807.051 200.816H804.987C805.067 199.952 805.355 199.224 805.851 198.632C806.363 198.04 806.995 197.592 807.747 197.288C808.499 196.968 809.299 196.808 810.147 196.808C811.811 196.808 813.059 197.256 813.891 198.152C814.739 199.032 815.163 200.208 815.163 201.68V209H813.363L813.243 206.864C812.907 207.536 812.411 208.112 811.755 208.592C811.115 209.056 810.251 209.288 809.163 209.288ZM809.475 207.584C810.243 207.584 810.899 207.384 811.443 206.984C812.003 206.584 812.427 206.064 812.715 205.424C813.003 204.784 813.147 204.112 813.147 203.408V203.384H810.099C808.915 203.384 808.075 203.592 807.579 204.008C807.099 204.408 806.859 204.912 806.859 205.52C806.859 206.144 807.083 206.648 807.531 207.032C807.995 207.4 808.643 207.584 809.475 207.584ZM818.187 209V197.096H820.011L820.155 198.824C820.539 198.184 821.051 197.688 821.691 197.336C822.331 196.984 823.051 196.808 823.851 196.808C824.795 196.808 825.603 197 826.275 197.384C826.963 197.768 827.491 198.352 827.859 199.136C828.275 198.416 828.843 197.848 829.563 197.432C830.299 197.016 831.091 196.808 831.939 196.808C833.363 196.808 834.499 197.24 835.347 198.104C836.195 198.952 836.619 200.264 836.619 202.04V209H834.627V202.256C834.627 201.024 834.379 200.096 833.883 199.472C833.387 198.848 832.675 198.536 831.747 198.536C830.787 198.536 829.987 198.912 829.347 199.664C828.723 200.4 828.411 201.456 828.411 202.832V209H826.395V202.256C826.395 201.024 826.147 200.096 825.651 199.472C825.155 198.848 824.443 198.536 823.515 198.536C822.571 198.536 821.779 198.912 821.139 199.664C820.515 200.4 820.203 201.456 820.203 202.832V209H818.187ZM845.008 209.288C843.872 209.288 842.864 209.032 841.984 208.52C841.104 207.992 840.408 207.264 839.896 206.336C839.4 205.408 839.152 204.312 839.152 203.048C839.152 201.8 839.4 200.712 839.896 199.784C840.392 198.84 841.08 198.112 841.96 197.6C842.856 197.072 843.888 196.808 845.056 196.808C846.208 196.808 847.2 197.072 848.032 197.6C848.88 198.112 849.528 198.792 849.976 199.64C850.424 200.488 850.648 201.4 850.648 202.376C850.648 202.552 850.64 202.728 850.624 202.904C850.624 203.08 850.624 203.28 850.624 203.504H841.144C841.192 204.416 841.4 205.176 841.768 205.784C842.152 206.376 842.624 206.824 843.184 207.128C843.76 207.432 844.368 207.584 845.008 207.584C845.84 207.584 846.536 207.392 847.096 207.008C847.656 206.624 848.064 206.104 848.32 205.448H850.312C849.992 206.552 849.376 207.472 848.464 208.208C847.568 208.928 846.416 209.288 845.008 209.288ZM845.008 198.512C844.048 198.512 843.192 198.808 842.44 199.4C841.704 199.976 841.28 200.824 841.168 201.944H848.656C848.608 200.872 848.24 200.032 847.552 199.424C846.864 198.816 846.016 198.512 845.008 198.512Z" fill="white" fill-opacity="0.7"/>
<path d="M788.776 311V294.2H799.168V295.856H790.792V301.712H798.448V303.344H790.792V309.344H799.168V311H788.776ZM802.203 311V299.096H804.027L804.171 300.824C804.555 300.184 805.067 299.688 805.707 299.336C806.347 298.984 807.067 298.808 807.867 298.808C808.811 298.808 809.619 299 810.291 299.384C810.979 299.768 811.507 300.352 811.875 301.136C812.291 300.416 812.859 299.848 813.579 299.432C814.315 299.016 815.107 298.808 815.955 298.808C817.379 298.808 818.515 299.24 819.363 300.104C820.211 300.952 820.635 302.264 820.635 304.04V311H818.643V304.256C818.643 303.024 818.395 302.096 817.899 301.472C817.403 300.848 816.691 300.536 815.763 300.536C814.803 300.536 814.003 300.912 813.363 301.664C812.739 302.4 812.427 303.456 812.427 304.832V311H810.411V304.256C810.411 303.024 810.163 302.096 809.667 301.472C809.171 300.848 808.459 300.536 807.531 300.536C806.587 300.536 805.795 300.912 805.155 301.664C804.531 302.4 804.219 303.456 804.219 304.832V311H802.203ZM827.632 311.288C826.64 311.288 825.816 311.12 825.16 310.784C824.504 310.448 824.016 310 823.696 309.44C823.376 308.88 823.216 308.272 823.216 307.616C823.216 306.4 823.68 305.464 824.608 304.808C825.536 304.152 826.8 303.824 828.4 303.824H831.616V303.68C831.616 302.64 831.344 301.856 830.8 301.328C830.256 300.784 829.528 300.512 828.616 300.512C827.832 300.512 827.152 300.712 826.576 301.112C826.016 301.496 825.664 302.064 825.52 302.816H823.456C823.536 301.952 823.824 301.224 824.32 300.632C824.832 300.04 825.464 299.592 826.216 299.288C826.968 298.968 827.768 298.808 828.616 298.808C830.28 298.808 831.528 299.256 832.36 300.152C833.208 301.032 833.632 302.208 833.632 303.68V311H831.832L831.712 308.864C831.376 309.536 830.88 310.112 830.224 310.592C829.584 311.056 828.72 311.288 827.632 311.288ZM827.944 309.584C828.712 309.584 829.368 309.384 829.912 308.984C830.472 308.584 830.896 308.064 831.184 307.424C831.472 306.784 831.616 306.112 831.616 305.408V305.384H828.568C827.384 305.384 826.544 305.592 826.048 306.008C825.568 306.408 825.328 306.912 825.328 307.52C825.328 308.144 825.552 308.648 826 309.032C826.464 309.4 827.112 309.584 827.944 309.584ZM837.88 296.456C837.48 296.456 837.144 296.328 836.872 296.072C836.616 295.8 836.488 295.464 836.488 295.064C836.488 294.68 836.616 294.36 836.872 294.104C837.144 293.848 837.48 293.72 837.88 293.72C838.264 293.72 838.592 293.848 838.864 294.104C839.136 294.36 839.272 294.68 839.272 295.064C839.272 295.464 839.136 295.8 838.864 296.072C838.592 296.328 838.264 296.456 837.88 296.456ZM836.872 311V299.096H838.888V311H836.872ZM842.398 311V293.72H844.414V311H842.398Z" fill="white" fill-opacity="0.7"/>
<path d="M791.605 393.18C790.835 393.18 790.155 393.05 789.565 392.79C788.975 392.52 788.51 392.14 788.17 391.65C787.83 391.15 787.655 390.545 787.645 389.835H789.67C789.69 390.325 789.865 390.74 790.195 391.08C790.535 391.41 791 391.575 791.59 391.575C792.1 391.575 792.505 391.455 792.805 391.215C793.105 390.965 793.255 390.635 793.255 390.225C793.255 389.795 793.12 389.46 792.85 389.22C792.59 388.98 792.24 388.785 791.8 388.635C791.36 388.485 790.89 388.325 790.39 388.155C789.58 387.875 788.96 387.515 788.53 387.075C788.11 386.635 787.9 386.05 787.9 385.32C787.89 384.7 788.035 384.17 788.335 383.73C788.645 383.28 789.065 382.935 789.595 382.695C790.125 382.445 790.735 382.32 791.425 382.32C792.125 382.32 792.74 382.445 793.27 382.695C793.81 382.945 794.23 383.295 794.53 383.745C794.84 384.195 795.005 384.73 795.025 385.35H792.97C792.96 384.98 792.815 384.655 792.535 384.375C792.265 384.085 791.885 383.94 791.395 383.94C790.975 383.93 790.62 384.035 790.33 384.255C790.05 384.465 789.91 384.775 789.91 385.185C789.91 385.535 790.02 385.815 790.24 386.025C790.46 386.225 790.76 386.395 791.14 386.535C791.52 386.675 791.955 386.825 792.445 386.985C792.965 387.165 793.44 387.375 793.87 387.615C794.3 387.855 794.645 388.175 794.905 388.575C795.165 388.965 795.295 389.47 795.295 390.09C795.295 390.64 795.155 391.15 794.875 391.62C794.595 392.09 794.18 392.47 793.63 392.76C793.08 393.04 792.405 393.18 791.605 393.18ZM799.715 393.18C798.785 393.18 798.065 392.89 797.555 392.31C797.055 391.73 796.805 390.88 796.805 389.76V385.56H798.71V389.58C798.71 390.22 798.84 390.71 799.1 391.05C799.36 391.39 799.77 391.56 800.33 391.56C800.86 391.56 801.295 391.37 801.635 390.99C801.985 390.61 802.16 390.08 802.16 389.4V385.56H804.08V393H802.385L802.235 391.74C802.005 392.18 801.67 392.53 801.23 392.79C800.8 393.05 800.295 393.18 799.715 393.18ZM810.461 393.18C809.901 393.18 809.411 393.075 808.991 392.865C808.571 392.655 808.231 392.36 807.971 391.98L807.761 393H806.051V382.2H807.971V386.625C808.211 386.295 808.526 386.005 808.916 385.755C809.316 385.505 809.831 385.38 810.461 385.38C811.161 385.38 811.786 385.55 812.336 385.89C812.886 386.23 813.321 386.695 813.641 387.285C813.961 387.875 814.121 388.545 814.121 389.295C814.121 390.045 813.961 390.715 813.641 391.305C813.321 391.885 812.886 392.345 812.336 392.685C811.786 393.015 811.161 393.18 810.461 393.18ZM810.056 391.5C810.666 391.5 811.171 391.295 811.571 390.885C811.971 390.475 812.171 389.945 812.171 389.295C812.171 388.645 811.971 388.11 811.571 387.69C811.171 387.27 810.666 387.06 810.056 387.06C809.436 387.06 808.926 387.27 808.526 387.69C808.136 388.1 807.941 388.63 807.941 389.28C807.941 389.93 808.136 390.465 808.526 390.885C808.926 391.295 809.436 391.5 810.056 391.5ZM815.836 393V385.56H817.531L817.696 386.565C817.936 386.205 818.251 385.92 818.641 385.71C819.041 385.49 819.501 385.38 820.021 385.38C821.171 385.38 821.986 385.825 822.466 386.715C822.736 386.305 823.096 385.98 823.546 385.74C824.006 385.5 824.506 385.38 825.046 385.38C826.016 385.38 826.761 385.67 827.281 386.25C827.801 386.83 828.061 387.68 828.061 388.8V393H826.141V388.98C826.141 388.34 826.016 387.85 825.766 387.51C825.526 387.17 825.151 387 824.641 387C824.121 387 823.701 387.19 823.381 387.57C823.071 387.95 822.916 388.48 822.916 389.16V393H820.996V388.98C820.996 388.34 820.871 387.85 820.621 387.51C820.371 387.17 819.986 387 819.466 387C818.956 387 818.541 387.19 818.221 387.57C817.911 387.95 817.756 388.48 817.756 389.16V393H815.836ZM830.919 384.405C830.569 384.405 830.279 384.3 830.049 384.09C829.829 383.88 829.719 383.615 829.719 383.295C829.719 382.975 829.829 382.715 830.049 382.515C830.279 382.305 830.569 382.2 830.919 382.2C831.269 382.2 831.554 382.305 831.774 382.515C832.004 382.715 832.119 382.975 832.119 383.295C832.119 383.615 832.004 383.88 831.774 384.09C831.554 384.3 831.269 384.405 830.919 384.405ZM829.959 393V385.56H831.879V393H829.959ZM837.198 393C836.418 393 835.793 392.81 835.323 392.43C834.853 392.05 834.618 391.375 834.618 390.405V387.165H833.343V385.56H834.618L834.843 383.565H836.538V385.56H838.548V387.165H836.538V390.42C836.538 390.78 836.613 391.03 836.763 391.17C836.923 391.3 837.193 391.365 837.573 391.365H838.503V393H837.198Z" fill="white" fill-opacity="0.7"/>
<path d="M111.332 179V166.4H119.126V167.642H112.844V172.034H118.586V173.258H112.844V177.758H119.126V179H111.332ZM121.402 179V170.072H122.77L122.878 171.368C123.166 170.888 123.55 170.516 124.03 170.252C124.51 169.988 125.05 169.856 125.65 169.856C126.358 169.856 126.964 170 127.468 170.288C127.984 170.576 128.38 171.014 128.656 171.602C128.968 171.062 129.394 170.636 129.934 170.324C130.486 170.012 131.08 169.856 131.716 169.856C132.784 169.856 133.636 170.18 134.272 170.828C134.908 171.464 135.226 172.448 135.226 173.78V179H133.732V173.942C133.732 173.018 133.546 172.322 133.174 171.854C132.802 171.386 132.268 171.152 131.572 171.152C130.852 171.152 130.252 171.434 129.772 171.998C129.304 172.55 129.07 173.342 129.07 174.374V179H127.558V173.942C127.558 173.018 127.372 172.322 127 171.854C126.628 171.386 126.094 171.152 125.398 171.152C124.69 171.152 124.096 171.434 123.616 171.998C123.148 172.55 122.914 173.342 122.914 174.374V179H121.402ZM140.474 179.216C139.73 179.216 139.112 179.09 138.62 178.838C138.128 178.586 137.762 178.25 137.522 177.83C137.282 177.41 137.162 176.954 137.162 176.462C137.162 175.55 137.51 174.848 138.206 174.356C138.902 173.864 139.85 173.618 141.05 173.618H143.462V173.51C143.462 172.73 143.258 172.142 142.85 171.746C142.442 171.338 141.896 171.134 141.212 171.134C140.624 171.134 140.114 171.284 139.682 171.584C139.262 171.872 138.998 172.298 138.89 172.862H137.342C137.402 172.214 137.618 171.668 137.99 171.224C138.374 170.78 138.848 170.444 139.412 170.216C139.976 169.976 140.576 169.856 141.212 169.856C142.46 169.856 143.396 170.192 144.02 170.864C144.656 171.524 144.974 172.406 144.974 173.51V179H143.624L143.534 177.398C143.282 177.902 142.91 178.334 142.418 178.694C141.938 179.042 141.29 179.216 140.474 179.216ZM140.708 177.938C141.284 177.938 141.776 177.788 142.184 177.488C142.604 177.188 142.922 176.798 143.138 176.318C143.354 175.838 143.462 175.334 143.462 174.806V174.788H141.176C140.288 174.788 139.658 174.944 139.286 175.256C138.926 175.556 138.746 175.934 138.746 176.39C138.746 176.858 138.914 177.236 139.25 177.524C139.598 177.8 140.084 177.938 140.708 177.938ZM148.16 168.092C147.86 168.092 147.608 167.996 147.404 167.804C147.212 167.6 147.116 167.348 147.116 167.048C147.116 166.76 147.212 166.52 147.404 166.328C147.608 166.136 147.86 166.04 148.16 166.04C148.448 166.04 148.694 166.136 148.898 166.328C149.102 166.52 149.204 166.76 149.204 167.048C149.204 167.348 149.102 167.6 148.898 167.804C148.694 167.996 148.448 168.092 148.16 168.092ZM147.404 179V170.072H148.916V179H147.404ZM151.549 179V166.04H153.061V179H151.549ZM160.393 179V166.4H161.905L168.619 176.498V166.4H170.131V179H168.619L161.905 168.902V179H160.393ZM176.727 179.216C175.875 179.216 175.119 179.024 174.459 178.64C173.799 178.244 173.277 177.698 172.893 177.002C172.521 176.306 172.335 175.484 172.335 174.536C172.335 173.6 172.521 172.784 172.893 172.088C173.265 171.38 173.781 170.834 174.441 170.45C175.113 170.054 175.887 169.856 176.763 169.856C177.627 169.856 178.371 170.054 178.995 170.45C179.631 170.834 180.117 171.344 180.453 171.98C180.789 172.616 180.957 173.3 180.957 174.032C180.957 174.164 180.951 174.296 180.939 174.428C180.939 174.56 180.939 174.71 180.939 174.878H173.829C173.865 175.562 174.021 176.132 174.297 176.588C174.585 177.032 174.939 177.368 175.359 177.596C175.791 177.824 176.247 177.938 176.727 177.938C177.351 177.938 177.873 177.794 178.293 177.506C178.713 177.218 179.019 176.828 179.211 176.336H180.705C180.465 177.164 180.003 177.854 179.319 178.406C178.647 178.946 177.783 179.216 176.727 179.216ZM176.727 171.134C176.007 171.134 175.365 171.356 174.801 171.8C174.249 172.232 173.931 172.868 173.847 173.708H179.463C179.427 172.904 179.151 172.274 178.635 171.818C178.119 171.362 177.483 171.134 176.727 171.134ZM184.409 179L181.799 170.072H183.311L185.201 177.074L187.289 170.072H188.999L191.105 177.074L192.977 170.072H194.507L191.897 179H190.349L188.153 171.638L185.957 179H184.409ZM199.6 179.216C198.532 179.216 197.644 178.946 196.936 178.406C196.228 177.866 195.814 177.134 195.694 176.21H197.242C197.338 176.678 197.584 177.086 197.98 177.434C198.388 177.77 198.934 177.938 199.618 177.938C200.254 177.938 200.722 177.806 201.022 177.542C201.322 177.266 201.472 176.942 201.472 176.57C201.472 176.03 201.274 175.67 200.878 175.49C200.494 175.31 199.948 175.148 199.24 175.004C198.76 174.908 198.28 174.77 197.8 174.59C197.32 174.41 196.918 174.158 196.594 173.834C196.27 173.498 196.108 173.06 196.108 172.52C196.108 171.74 196.396 171.104 196.972 170.612C197.56 170.108 198.352 169.856 199.348 169.856C200.296 169.856 201.07 170.096 201.67 170.576C202.282 171.044 202.636 171.716 202.732 172.592H201.238C201.178 172.136 200.98 171.782 200.644 171.53C200.32 171.266 199.882 171.134 199.33 171.134C198.79 171.134 198.37 171.248 198.07 171.476C197.782 171.704 197.638 172.004 197.638 172.376C197.638 172.736 197.824 173.018 198.196 173.222C198.58 173.426 199.096 173.6 199.744 173.744C200.296 173.864 200.818 174.014 201.31 174.194C201.814 174.362 202.222 174.62 202.534 174.968C202.858 175.304 203.02 175.796 203.02 176.444C203.032 177.248 202.726 177.914 202.102 178.442C201.49 178.958 200.656 179.216 199.6 179.216ZM205.18 179V166.04H206.692V179H205.18ZM213.184 179.216C212.332 179.216 211.576 179.024 210.916 178.64C210.256 178.244 209.734 177.698 209.35 177.002C208.978 176.306 208.792 175.484 208.792 174.536C208.792 173.6 208.978 172.784 209.35 172.088C209.722 171.38 210.238 170.834 210.898 170.45C211.57 170.054 212.344 169.856 213.22 169.856C214.084 169.856 214.828 170.054 215.452 170.45C216.088 170.834 216.574 171.344 216.91 171.98C217.246 172.616 217.414 173.3 217.414 174.032C217.414 174.164 217.408 174.296 217.396 174.428C217.396 174.56 217.396 174.71 217.396 174.878H210.286C210.322 175.562 210.478 176.132 210.754 176.588C211.042 177.032 211.396 177.368 211.816 177.596C212.248 177.824 212.704 177.938 213.184 177.938C213.808 177.938 214.33 177.794 214.75 177.506C215.17 177.218 215.476 176.828 215.668 176.336H217.162C216.922 177.164 216.46 177.854 215.776 178.406C215.104 178.946 214.24 179.216 213.184 179.216ZM213.184 171.134C212.464 171.134 211.822 171.356 211.258 171.8C210.706 172.232 210.388 172.868 210.304 173.708H215.92C215.884 172.904 215.608 172.274 215.092 171.818C214.576 171.362 213.94 171.134 213.184 171.134ZM222.647 179C221.831 179 221.189 178.802 220.721 178.406C220.253 178.01 220.019 177.296 220.019 176.264V171.35H218.471V170.072H220.019L220.217 167.93H221.531V170.072H224.159V171.35H221.531V176.264C221.531 176.828 221.645 177.212 221.873 177.416C222.101 177.608 222.503 177.704 223.079 177.704H224.015V179H222.647ZM229.608 179C228.792 179 228.15 178.802 227.682 178.406C227.214 178.01 226.98 177.296 226.98 176.264V171.35H225.432V170.072H226.98L227.178 167.93H228.492V170.072H231.12V171.35H228.492V176.264C228.492 176.828 228.606 177.212 228.834 177.416C229.062 177.608 229.464 177.704 230.04 177.704H230.976V179H229.608ZM236.809 179.216C235.957 179.216 235.201 179.024 234.541 178.64C233.881 178.244 233.359 177.698 232.975 177.002C232.603 176.306 232.417 175.484 232.417 174.536C232.417 173.6 232.603 172.784 232.975 172.088C233.347 171.38 233.863 170.834 234.523 170.45C235.195 170.054 235.969 169.856 236.845 169.856C237.709 169.856 238.453 170.054 239.077 170.45C239.713 170.834 240.199 171.344 240.535 171.98C240.871 172.616 241.039 173.3 241.039 174.032C241.039 174.164 241.033 174.296 241.021 174.428C241.021 174.56 241.021 174.71 241.021 174.878H233.911C233.947 175.562 234.103 176.132 234.379 176.588C234.667 177.032 235.021 177.368 235.441 177.596C235.873 177.824 236.329 177.938 236.809 177.938C237.433 177.938 237.955 177.794 238.375 177.506C238.795 177.218 239.101 176.828 239.293 176.336H240.787C240.547 177.164 240.085 177.854 239.401 178.406C238.729 178.946 237.865 179.216 236.809 179.216ZM236.809 171.134C236.089 171.134 235.447 171.356 234.883 171.8C234.331 172.232 234.013 172.868 233.929 173.708H239.545C239.509 172.904 239.233 172.274 238.717 171.818C238.201 171.362 237.565 171.134 236.809 171.134ZM243.043 179V170.072H244.411L244.537 171.782C244.813 171.194 245.233 170.726 245.797 170.378C246.361 170.03 247.057 169.856 247.885 169.856V171.44H247.471C246.943 171.44 246.457 171.536 246.013 171.728C245.569 171.908 245.215 172.22 244.951 172.664C244.687 173.108 244.555 173.72 244.555 174.5V179H243.043Z" fill="#118DA8"/>
<path d="M131.384 249.864C127.688 249.864 124.472 249.192 121.736 247.848C119 246.504 116.888 244.632 115.4 242.232C113.912 239.832 113.168 237.048 113.168 233.88H119.504C119.504 235.848 119.96 237.672 120.872 239.352C121.784 240.984 123.104 242.304 124.832 243.312C126.608 244.272 128.792 244.752 131.384 244.752C134.792 244.752 137.432 243.936 139.304 242.304C141.176 240.672 142.112 238.632 142.112 236.184C142.112 234.168 141.68 232.56 140.816 231.36C139.952 230.112 138.776 229.104 137.288 228.336C135.848 227.568 134.168 226.896 132.248 226.32C130.376 225.744 128.408 225.096 126.344 224.376C122.456 223.032 119.576 221.376 117.704 219.408C115.832 217.392 114.896 214.776 114.896 211.56C114.848 208.872 115.472 206.496 116.768 204.432C118.064 202.32 119.888 200.688 122.24 199.536C124.64 198.336 127.472 197.736 130.736 197.736C133.952 197.736 136.736 198.336 139.088 199.536C141.488 200.736 143.336 202.392 144.632 204.504C145.976 206.616 146.672 209.016 146.72 211.704H140.384C140.384 210.312 140.024 208.944 139.304 207.6C138.584 206.208 137.48 205.08 135.992 204.216C134.552 203.352 132.728 202.92 130.52 202.92C127.784 202.872 125.528 203.568 123.752 205.008C122.024 206.448 121.16 208.44 121.16 210.984C121.16 213.144 121.76 214.8 122.96 215.952C124.208 217.104 125.936 218.064 128.144 218.832C130.352 219.552 132.896 220.392 135.776 221.352C138.176 222.216 140.336 223.224 142.256 224.376C144.176 225.528 145.664 227.016 146.72 228.84C147.824 230.664 148.376 232.992 148.376 235.824C148.376 238.224 147.752 240.504 146.504 242.664C145.256 244.776 143.36 246.504 140.816 247.848C138.32 249.192 135.176 249.864 131.384 249.864ZM172.505 249.864C168.281 249.864 164.921 248.592 162.425 246.048C159.929 243.456 158.681 239.496 158.681 234.168V213.288H164.729V233.52C164.729 240.96 167.777 244.68 173.873 244.68C176.993 244.68 179.561 243.576 181.577 241.368C183.641 239.112 184.673 235.92 184.673 231.792V213.288H190.721V249H185.249L184.817 242.592C183.713 244.848 182.057 246.624 179.849 247.92C177.689 249.216 175.241 249.864 172.505 249.864ZM222.636 249.864C219.708 249.864 217.092 249.264 214.788 248.064C212.532 246.864 210.804 245.184 209.604 243.024L209.028 249H203.556V197.16H209.604V219.192C210.756 217.464 212.388 215.904 214.5 214.512C216.66 213.12 219.396 212.424 222.708 212.424C226.26 212.424 229.356 213.24 231.996 214.872C234.636 216.504 236.676 218.736 238.116 221.568C239.604 224.4 240.348 227.616 240.348 231.216C240.348 234.816 239.604 238.032 238.116 240.864C236.676 243.648 234.612 245.856 231.924 247.488C229.284 249.072 226.188 249.864 222.636 249.864ZM221.988 244.608C224.388 244.608 226.5 244.056 228.324 242.952C230.148 241.8 231.588 240.216 232.644 238.2C233.7 236.184 234.228 233.832 234.228 231.144C234.228 228.456 233.7 226.104 232.644 224.088C231.588 222.072 230.148 220.512 228.324 219.408C226.5 218.256 224.388 217.68 221.988 217.68C219.588 217.68 217.476 218.256 215.652 219.408C213.828 220.512 212.388 222.072 211.332 224.088C210.276 226.104 209.748 228.456 209.748 231.144C209.748 233.832 210.276 236.184 211.332 238.2C212.388 240.216 213.828 241.8 215.652 242.952C217.476 244.056 219.588 244.608 221.988 244.608ZM265.327 249.864C261.055 249.864 257.503 248.784 254.671 246.624C251.839 244.464 250.183 241.536 249.703 237.84H255.895C256.279 239.712 257.263 241.344 258.847 242.736C260.479 244.08 262.663 244.752 265.399 244.752C267.943 244.752 269.815 244.224 271.015 243.168C272.215 242.064 272.815 240.768 272.815 239.28C272.815 237.12 272.023 235.68 270.439 234.96C268.903 234.24 266.719 233.592 263.887 233.016C261.967 232.632 260.047 232.08 258.127 231.36C256.207 230.64 254.599 229.632 253.303 228.336C252.007 226.992 251.359 225.24 251.359 223.08C251.359 219.96 252.511 217.416 254.815 215.448C257.167 213.432 260.335 212.424 264.319 212.424C268.111 212.424 271.207 213.384 273.607 215.304C276.055 217.176 277.471 219.864 277.855 223.368H271.879C271.639 221.544 270.847 220.128 269.503 219.12C268.207 218.064 266.455 217.536 264.247 217.536C262.087 217.536 260.407 217.992 259.207 218.904C258.055 219.816 257.479 221.016 257.479 222.504C257.479 223.944 258.223 225.072 259.711 225.888C261.247 226.704 263.311 227.4 265.903 227.976C268.111 228.456 270.199 229.056 272.167 229.776C274.183 230.448 275.815 231.48 277.063 232.872C278.359 234.216 279.007 236.184 279.007 238.776C279.055 241.992 277.831 244.656 275.335 246.768C272.887 248.832 269.551 249.864 265.327 249.864ZM306.943 249.864C303.535 249.864 300.463 249.096 297.727 247.56C295.039 245.976 292.903 243.792 291.319 241.008C289.783 238.176 289.015 234.888 289.015 231.144C289.015 227.4 289.783 224.136 291.319 221.352C292.903 218.52 295.039 216.336 297.727 214.8C300.463 213.216 303.535 212.424 306.943 212.424C311.167 212.424 314.719 213.528 317.599 215.736C320.527 217.944 322.375 220.896 323.143 224.592H316.951C316.471 222.384 315.295 220.68 313.423 219.48C311.551 218.232 309.367 217.608 306.871 217.608C304.855 217.608 302.959 218.112 301.183 219.12C299.407 220.128 297.967 221.64 296.863 223.656C295.759 225.672 295.207 228.168 295.207 231.144C295.207 234.12 295.759 236.616 296.863 238.632C297.967 240.648 299.407 242.184 301.183 243.24C302.959 244.248 304.855 244.752 306.871 244.752C309.367 244.752 311.551 244.152 313.423 242.952C315.295 241.704 316.471 239.952 316.951 237.696H323.143C322.423 241.296 320.599 244.224 317.671 246.48C314.743 248.736 311.167 249.864 306.943 249.864ZM334.47 249V213.288H339.942L340.446 220.128C341.55 217.776 343.23 215.904 345.486 214.512C347.742 213.12 350.526 212.424 353.838 212.424V218.76H352.182C350.07 218.76 348.126 219.144 346.35 219.912C344.574 220.632 343.158 221.88 342.102 223.656C341.046 225.432 340.518 227.88 340.518 231V249H334.47ZM367.178 205.368C365.978 205.368 364.97 204.984 364.154 204.216C363.386 203.4 363.002 202.392 363.002 201.192C363.002 200.04 363.386 199.08 364.154 198.312C364.97 197.544 365.978 197.16 367.178 197.16C368.33 197.16 369.314 197.544 370.13 198.312C370.946 199.08 371.354 200.04 371.354 201.192C371.354 202.392 370.946 203.4 370.13 204.216C369.314 204.984 368.33 205.368 367.178 205.368ZM364.154 249V213.288H370.202V249H364.154ZM402.692 249.864C399.764 249.864 397.148 249.264 394.844 248.064C392.588 246.864 390.86 245.184 389.66 243.024L389.084 249H383.612V197.16H389.66V219.192C390.812 217.464 392.444 215.904 394.556 214.512C396.716 213.12 399.452 212.424 402.764 212.424C406.316 212.424 409.412 213.24 412.052 214.872C414.692 216.504 416.732 218.736 418.172 221.568C419.66 224.4 420.404 227.616 420.404 231.216C420.404 234.816 419.66 238.032 418.172 240.864C416.732 243.648 414.668 245.856 411.98 247.488C409.34 249.072 406.244 249.864 402.692 249.864ZM402.044 244.608C404.444 244.608 406.556 244.056 408.38 242.952C410.204 241.8 411.644 240.216 412.7 238.2C413.756 236.184 414.284 233.832 414.284 231.144C414.284 228.456 413.756 226.104 412.7 224.088C411.644 222.072 410.204 220.512 408.38 219.408C406.556 218.256 404.444 217.68 402.044 217.68C399.644 217.68 397.532 218.256 395.708 219.408C393.884 220.512 392.444 222.072 391.388 224.088C390.332 226.104 389.804 228.456 389.804 231.144C389.804 233.832 390.332 236.184 391.388 238.2C392.444 240.216 393.884 241.8 395.708 242.952C397.532 244.056 399.644 244.608 402.044 244.608ZM447.759 249.864C444.351 249.864 441.327 249.096 438.687 247.56C436.047 245.976 433.959 243.792 432.423 241.008C430.935 238.224 430.191 234.936 430.191 231.144C430.191 227.4 430.935 224.136 432.423 221.352C433.911 218.52 435.975 216.336 438.615 214.8C441.303 213.216 444.399 212.424 447.903 212.424C451.359 212.424 454.335 213.216 456.831 214.8C459.375 216.336 461.319 218.376 462.663 220.92C464.007 223.464 464.679 226.2 464.679 229.128C464.679 229.656 464.655 230.184 464.607 230.712C464.607 231.24 464.607 231.84 464.607 232.512H436.167C436.311 235.248 436.935 237.528 438.039 239.352C439.191 241.128 440.607 242.472 442.287 243.384C444.015 244.296 445.839 244.752 447.759 244.752C450.255 244.752 452.343 244.176 454.023 243.024C455.703 241.872 456.927 240.312 457.695 238.344H463.671C462.711 241.656 460.863 244.416 458.127 246.624C455.439 248.784 451.983 249.864 447.759 249.864ZM447.759 217.536C444.879 217.536 442.311 218.424 440.055 220.2C437.847 221.928 436.575 224.472 436.239 227.832H458.703C458.559 224.616 457.455 222.096 455.391 220.272C453.327 218.448 450.783 217.536 447.759 217.536ZM116.912 328V297.4H111.512V292.288H116.912V286.096C116.912 282.64 117.776 280.12 119.504 278.536C121.232 276.952 123.752 276.16 127.064 276.16H130.664V281.344H128C126.176 281.344 124.88 281.728 124.112 282.496C123.344 283.216 122.96 284.464 122.96 286.24V292.288H131.744V297.4H122.96V328H116.912ZM156.69 328.864C153.33 328.864 150.306 328.096 147.618 326.56C144.93 325.024 142.794 322.864 141.21 320.08C139.674 317.248 138.906 313.936 138.906 310.144C138.906 306.352 139.698 303.064 141.282 300.28C142.866 297.448 145.002 295.264 147.69 293.728C150.426 292.192 153.474 291.424 156.834 291.424C160.194 291.424 163.218 292.192 165.906 293.728C168.594 295.264 170.706 297.448 172.242 300.28C173.826 303.064 174.618 306.352 174.618 310.144C174.618 313.936 173.826 317.248 172.242 320.08C170.658 322.864 168.498 325.024 165.762 326.56C163.074 328.096 160.05 328.864 156.69 328.864ZM156.69 323.68C158.754 323.68 160.674 323.176 162.45 322.168C164.226 321.16 165.666 319.648 166.77 317.632C167.874 315.616 168.426 313.12 168.426 310.144C168.426 307.168 167.874 304.672 166.77 302.656C165.714 300.64 164.298 299.128 162.522 298.12C160.746 297.112 158.85 296.608 156.834 296.608C154.77 296.608 152.85 297.112 151.074 298.12C149.298 299.128 147.858 300.64 146.754 302.656C145.65 304.672 145.098 307.168 145.098 310.144C145.098 313.12 145.65 315.616 146.754 317.632C147.858 319.648 149.274 321.16 151.002 322.168C152.778 323.176 154.674 323.68 156.69 323.68ZM185.908 328V292.288H191.38L191.884 299.128C192.988 296.776 194.668 294.904 196.924 293.512C199.18 292.12 201.964 291.424 205.276 291.424V297.76H203.62C201.508 297.76 199.564 298.144 197.788 298.912C196.012 299.632 194.596 300.88 193.54 302.656C192.484 304.432 191.956 306.88 191.956 310V328H185.908ZM249.911 328.864C245.687 328.864 242.327 327.592 239.831 325.048C237.335 322.456 236.087 318.496 236.087 313.168V292.288H242.135V312.52C242.135 319.96 245.183 323.68 251.279 323.68C254.399 323.68 256.967 322.576 258.983 320.368C261.047 318.112 262.079 314.92 262.079 310.792V292.288H268.127V328H262.655L262.223 321.592C261.119 323.848 259.463 325.624 257.255 326.92C255.095 328.216 252.647 328.864 249.911 328.864ZM280.962 343.84V292.288H286.434L287.01 298.192C288.162 296.464 289.794 294.904 291.906 293.512C294.066 292.12 296.802 291.424 300.114 291.424C303.666 291.424 306.762 292.24 309.402 293.872C312.042 295.504 314.082 297.736 315.522 300.568C317.01 303.4 317.754 306.616 317.754 310.216C317.754 313.816 317.01 317.032 315.522 319.864C314.082 322.648 312.018 324.856 309.33 326.488C306.69 328.072 303.594 328.864 300.042 328.864C297.114 328.864 294.498 328.264 292.194 327.064C289.938 325.864 288.21 324.184 287.01 322.024V343.84H280.962ZM299.394 323.608C301.794 323.608 303.906 323.056 305.73 321.952C307.554 320.8 308.994 319.216 310.05 317.2C311.106 315.184 311.634 312.832 311.634 310.144C311.634 307.456 311.106 305.104 310.05 303.088C308.994 301.072 307.554 299.512 305.73 298.408C303.906 297.256 301.794 296.68 299.394 296.68C296.994 296.68 294.882 297.256 293.058 298.408C291.234 299.512 289.794 301.072 288.738 303.088C287.682 305.104 287.154 307.456 287.154 310.144C287.154 312.832 287.682 315.184 288.738 317.2C289.794 319.216 291.234 320.8 293.058 321.952C294.882 323.056 296.994 323.608 299.394 323.608ZM345.253 328.864C341.701 328.864 338.581 328.048 335.893 326.416C333.253 324.784 331.189 322.552 329.701 319.72C328.261 316.888 327.541 313.672 327.541 310.072C327.541 306.472 328.285 303.28 329.773 300.496C331.261 297.664 333.325 295.456 335.965 293.872C338.605 292.24 341.725 291.424 345.325 291.424C348.253 291.424 350.845 292.024 353.101 293.224C355.357 294.424 357.109 296.104 358.357 298.264V276.16H364.405V328H358.933L358.357 322.096C357.205 323.824 355.549 325.384 353.389 326.776C351.229 328.168 348.517 328.864 345.253 328.864ZM345.901 323.608C348.301 323.608 350.413 323.056 352.237 321.952C354.109 320.8 355.549 319.216 356.557 317.2C357.613 315.184 358.141 312.832 358.141 310.144C358.141 307.456 357.613 305.104 356.557 303.088C355.549 301.072 354.109 299.512 352.237 298.408C350.413 297.256 348.301 296.68 345.901 296.68C343.549 296.68 341.437 297.256 339.565 298.408C337.741 299.512 336.301 301.072 335.245 303.088C334.237 305.104 333.733 307.456 333.733 310.144C333.733 312.832 334.237 315.184 335.245 317.2C336.301 319.216 337.741 320.8 339.565 321.952C341.437 323.056 343.549 323.608 345.901 323.608ZM389.024 328.864C386.048 328.864 383.576 328.36 381.608 327.352C379.64 326.344 378.176 325 377.216 323.32C376.256 321.64 375.776 319.816 375.776 317.848C375.776 314.2 377.168 311.392 379.952 309.424C382.736 307.456 386.528 306.472 391.328 306.472H400.976V306.04C400.976 302.92 400.16 300.568 398.528 298.984C396.896 297.352 394.712 296.536 391.976 296.536C389.624 296.536 387.584 297.136 385.856 298.336C384.176 299.488 383.12 301.192 382.688 303.448H376.496C376.736 300.856 377.6 298.672 379.088 296.896C380.624 295.12 382.52 293.776 384.776 292.864C387.032 291.904 389.432 291.424 391.976 291.424C396.968 291.424 400.712 292.768 403.208 295.456C405.752 298.096 407.024 301.624 407.024 306.04V328H401.624L401.264 321.592C400.256 323.608 398.768 325.336 396.8 326.776C394.88 328.168 392.288 328.864 389.024 328.864ZM389.96 323.752C392.264 323.752 394.232 323.152 395.864 321.952C397.544 320.752 398.816 319.192 399.68 317.272C400.544 315.352 400.976 313.336 400.976 311.224V311.152H391.832C388.28 311.152 385.76 311.776 384.272 313.024C382.832 314.224 382.112 315.736 382.112 317.56C382.112 319.432 382.784 320.944 384.128 322.096C385.52 323.2 387.464 323.752 389.96 323.752ZM432.104 328C428.84 328 426.272 327.208 424.4 325.624C422.528 324.04 421.592 321.184 421.592 317.056V297.4H415.4V292.288H421.592L422.384 283.72H427.64V292.288H438.152V297.4H427.64V317.056C427.64 319.312 428.096 320.848 429.008 321.664C429.92 322.432 431.528 322.816 433.832 322.816H437.576V328H432.104ZM463.788 328.864C460.38 328.864 457.356 328.096 454.716 326.56C452.076 324.976 449.988 322.792 448.452 320.008C446.964 317.224 446.22 313.936 446.22 310.144C446.22 306.4 446.964 303.136 448.452 300.352C449.94 297.52 452.004 295.336 454.644 293.8C457.332 292.216 460.428 291.424 463.932 291.424C467.388 291.424 470.364 292.216 472.86 293.8C475.404 295.336 477.348 297.376 478.692 299.92C480.036 302.464 480.708 305.2 480.708 308.128C480.708 308.656 480.684 309.184 480.636 309.712C480.636 310.24 480.636 310.84 480.636 311.512H452.196C452.34 314.248 452.964 316.528 454.068 318.352C455.22 320.128 456.636 321.472 458.316 322.384C460.044 323.296 461.868 323.752 463.788 323.752C466.284 323.752 468.372 323.176 470.052 322.024C471.732 320.872 472.956 319.312 473.724 317.344H479.7C478.74 320.656 476.892 323.416 474.156 325.624C471.468 327.784 468.012 328.864 463.788 328.864ZM463.788 296.536C460.908 296.536 458.34 297.424 456.084 299.2C453.876 300.928 452.604 303.472 452.268 306.832H474.732C474.588 303.616 473.484 301.096 471.42 299.272C469.356 297.448 466.812 296.536 463.788 296.536ZM505.284 328.864C501.012 328.864 497.46 327.784 494.628 325.624C491.796 323.464 490.14 320.536 489.66 316.84H495.852C496.236 318.712 497.22 320.344 498.804 321.736C500.436 323.08 502.62 323.752 505.356 323.752C507.9 323.752 509.772 323.224 510.972 322.168C512.172 321.064 512.772 319.768 512.772 318.28C512.772 316.12 511.98 314.68 510.396 313.96C508.86 313.24 506.676 312.592 503.844 312.016C501.924 311.632 500.004 311.08 498.084 310.36C496.164 309.64 494.556 308.632 493.26 307.336C491.964 305.992 491.316 304.24 491.316 302.08C491.316 298.96 492.468 296.416 494.772 294.448C497.124 292.432 500.292 291.424 504.276 291.424C508.068 291.424 511.164 292.384 513.564 294.304C516.012 296.176 517.428 298.864 517.812 302.368H511.836C511.596 300.544 510.804 299.128 509.46 298.12C508.164 297.064 506.412 296.536 504.204 296.536C502.044 296.536 500.364 296.992 499.164 297.904C498.012 298.816 497.436 300.016 497.436 301.504C497.436 302.944 498.18 304.072 499.668 304.888C501.204 305.704 503.268 306.4 505.86 306.976C508.068 307.456 510.156 308.056 512.124 308.776C514.14 309.448 515.772 310.48 517.02 311.872C518.316 313.216 518.964 315.184 518.964 317.776C519.012 320.992 517.788 323.656 515.292 325.768C512.844 327.832 509.508 328.864 505.284 328.864Z" fill="white"/>
<g clip-path="url(#clip0_2_167)">
<path fill-rule="evenodd" clip-rule="evenodd" d="M30.6849 422.219C24.8838 424.83 19.1222 427.362 13.4 430.142C12.1668 430.735 11.6539 432.209 12.2458 433.436C12.8378 434.672 14.3175 435.186 15.5408 434.593C21.2334 431.833 26.9456 429.321 32.7072 426.729C33.9503 426.166 34.503 424.702 33.9506 423.465C33.3882 422.219 31.928 421.655 30.6849 422.219Z" fill="#118DA8"/>
<path fill-rule="evenodd" clip-rule="evenodd" d="M73.3048 453.11C64.8795 471.399 57.3813 490.103 49.3505 508.56C48.8079 509.817 49.3801 511.271 50.6232 511.815C51.8762 512.359 53.3262 511.795 53.8787 510.539C61.8897 492.111 69.368 473.436 77.7835 455.187C78.3557 453.941 77.8134 452.477 76.5802 451.903C75.3371 451.329 73.877 451.873 73.3048 453.11Z" fill="#118DA8"/>
<path fill-rule="evenodd" clip-rule="evenodd" d="M145.591 457.858C148.285 474.673 151.452 491.439 153.958 508.283C154.165 509.629 155.418 510.558 156.759 510.361C158.111 510.163 159.038 508.897 158.841 507.552C156.325 490.687 153.158 473.901 150.455 457.066C150.238 455.721 148.975 454.801 147.634 455.019C146.282 455.236 145.374 456.503 145.591 457.858Z" fill="#118DA8"/>
</g>
<defs>
<clipPath id="clip0_2_167">
<rect width="147" height="91" fill="white" transform="translate(12 422)"/>
</clipPath>
</defs>
</svg>
